<?xml version="1.0" encoding="UTF-8"?>
<svg id="Layer_1" data-name="Layer 1" xmlns="http://www.w3.org/2000/svg" viewBox="0 0 262.2 51.33">
  <defs>
    <style>
      .cls-1 {
        fill: #fff;
      }

      .cls-2 {
        fill: #ffec00;
      }
    </style>
  </defs>
  <g>
    <path class="cls-1" d="M40.46,18.93c.54,0,1,.47,1,.94v21.27c0,.6-.33,1.2-.8,1.6-4.01,3.41-10.17,5.42-16.59,5.42C9.63,48.15,0,38.52,0,24.08S9.63,0,24.08,0C29.03,0,34.24,1.47,38.12,3.88c.54.27.74.8.6,1.2l-3.34,9.83c-.2.47-.67.67-1.27.54-2.74-1.47-6.29-2.34-9.63-2.34-6.15,0-10.3,4.41-10.3,10.97s4.15,11.1,10.3,11.1c2.47,0,4.15-.47,4.88-1.27v-3.88h-6.15c-.6,0-1-.27-1.07-.74l-.87-9.23c-.07-.67.33-1.14,1.07-1.14h18.12ZM29.76,32.9v.27-.27Z"/>
    <path class="cls-1" d="M64.27,48.15c-14.25,0-23.74-9.63-23.74-24.01S50.03,0,64.27,0s23.74,9.63,23.74,24.14-9.5,24.01-23.74,24.01ZM64.27,13.51c-5.48,0-9.16,4.28-9.16,10.63s3.68,10.63,9.16,10.63,9.16-4.28,9.16-10.63-3.68-10.63-9.16-10.63Z"/>
    <path class="cls-1" d="M113.83,35.18c.47,0,.87.4.87.94l-.94,10.17c-.07.47-.54.94-1.07.94h-24.14c-.53,0-1-.47-1-.94V2.07c0-.54.47-1,1-1h11.84c.54,0,1,.47,1,1v33.11h12.44Z"/>
    <path class="cls-1" d="M129.28,1.07c14.18,0,23.61,9.16,23.61,23.07s-9.43,23.07-23.61,23.07h-15.52c-.47,0-.94-.47-.94-1V2.07c0-.54.47-1,.94-1h15.52ZM130.08,35.18c5.15,0,8.63-4.41,8.63-11.04s-3.48-11.04-8.63-11.04h-3.48v22.07h3.48Z"/>
    <path class="cls-1" d="M183.99,35.18c.54,0,1,.4,1,.87v10.23c0,.47-.47.94-1,.94h-31.1c-.47,0-.94-.54-1.07-1V2.01c0-.6.33-.94.94-.94h30.43c.6,0,1.07.47,1.07.94v10.1c0,.6-.47,1-1.07,1h-17.46v5.28h14.18c.6,0,.94.47.87.87l-.94,9.36c-.07.4-.54.87-1.14.87h-12.97v5.69h18.26Z"/>
    <path class="cls-1" d="M222.44,1.07c.6,0,1,.47,1,1v44.21c0,.47-.4.94-1,.94h-11.57c-.47,0-1.07-.33-1.4-.87l-11.64-20.8v20.73c0,.47-.4.94-1,.94h-11.84c-.54,0-.94-.47-.94-.94V2.07c0-.54.4-1,.94-1h11.57c.6,0,1.27.33,1.54.87l11.57,20.8V2.07c0-.54.47-1,.94-1h11.84Z"/>
  </g>
  <g>
    <path class="cls-2" d="M226.81,51.33v-14.39h2.06v1.37h.69v-.69h.69v-.69h2.74v.69h1.37v.69h.69v1.37h.69v4.8h-.69v1.37h-.69v.69h-1.37v.69h-2.74v-.69h-.69v-.69h-.69v5.48h-2.06ZM232.97,45.16v-.69h.69v-4.8h-.69v-.68h-2.74v.68h-.69v.69h-.69v3.43h.69v.69h.69v.69h2.74Z"/>
    <path class="cls-2" d="M237.16,35.56v-2.06h2.06v2.06h-2.06ZM237.16,47.22v-10.28h2.06v10.28h-2.06Z"/>
    <path class="cls-2" d="M240.91,47.22v-2.06h.69v-.69h.69v-.69h.69v-.69h.68v-.69h.69v-.69h-.69v-.69h-.68v-.69h-.69v-.69h-.69v-.68h-.69v-2.06h1.37v.69h.69v.69h.68v.69h.69v1.37h1.37v-1.37h.69v-.69h.69v-.69h.69v-.69h1.37v2.06h-.69v.68h-.69v.69h-.69v.69h-.69v.69h-.69v.69h.69v.69h.69v.69h.69v.69h.69v.69h.69v2.06h-1.37v-.69h-.69v-.69h-.69v-.69h-.69v-1.37h-1.37v1.37h-.69v.69h-.68v.69h-.69v.69h-1.37Z"/>
    <path class="cls-2" d="M253.19,47.22v-.69h-1.37v-.69h-.69v-1.37h-.69v-4.8h.69v-1.37h.69v-.69h1.37v-.69h2.74v.69h1.37v.69h.69v1.37h.69v2.74h-6.17v2.06h.69v.69h2.74v-.69h.69v-.69h2.06v1.37h-.69v.69h-.69v.69h-1.37v.69h-2.74ZM256.62,41.05v-1.37h-.69v-.68h-2.74v.68h-.69v1.37h4.11Z"/>
    <path class="cls-2" d="M260.14,47.22v-13.71h2.06v13.71h-2.06Z"/>
  </g>
</svg>